{
    "asset" : {
        "generator" : "Khronos glTF Blender I/O v3.2.43",
        "version" : "2.0"
    },
    "scene" : 0,
    "scenes" : [
        {
            "name" : "Scene",
            "nodes" : [
                0
            ]
        }
    ],
    "nodes" : [
        {
            "mesh" : 0,
            "name" : "Cube.004",
            "rotation" : [
                -0.010991479270160198,
                -0.9944680333137512,
                -0.019445765763521194,
                0.1026381105184555
            ],
            "scale" : [
                0.7963386178016663,
                0.796338677406311,
                0.796338677406311
            ],
            "translation" : [
                1.543035626411438,
                1.3902990818023682,
                1.9015917778015137
            ]
        }
    ],
    "materials" : [
        {
            "doubleSided" : true,
            "name" : "Material.001",
            "pbrMetallicRoughness" : {
                "baseColorFactor" : [
                    0.11049260944128036,
                    0.09997284412384033,
                    0.11906542629003525,
                    1
                ],
                "metallicFactor" : 0,
                "roughnessFactor" : 0.4000000059604645
            }
        },
        {
            "doubleSided" : true,
            "name" : "Material.023",
            "pbrMetallicRoughness" : {
                "baseColorFactor" : [
                    0.8000000715255737,
                    0.05485106259584427,
                    0.030123678967356682,
                    1
                ],
                "metallicFactor" : 0,
                "roughnessFactor" : 0.4000000059604645
            }
        },
        {
            "doubleSided" : true,
            "name" : "Material.024",
            "pbrMetallicRoughness" : {
                "baseColorFactor" : [
                    0.800000011920929,
                    0.800000011920929,
                    0.800000011920929,
                    1
                ],
                "metallicFactor" : 0,
                "roughnessFactor" : 0.5
            }
        },
        {
            "doubleSided" : true,
            "name" : "Material.025",
            "pbrMetallicRoughness" : {
                "baseColorFactor" : [
                    0.6794419884681702,
                    0.2770578861236572,
                    0.8000000715255737,
                    1
                ],
                "metallicFactor" : 0,
                "roughnessFactor" : 0.4000000059604645
            }
        },
        {
            "doubleSided" : true,
            "name" : "Material.026",
            "pbrMetallicRoughness" : {
                "baseColorFactor" : [
                    0.3839476704597473,
                    0.38774093985557556,
                    0.4262131452560425,
                    1
                ],
                "metallicFactor" : 0,
                "roughnessFactor" : 0.4000000059604645
            }
        },
        {
            "doubleSided" : true,
            "name" : "Material.027",
            "pbrMetallicRoughness" : {
                "baseColorFactor" : [
                    0.04518383368849754,
                    0.04518383368849754,
                    0.04518383368849754,
                    1
                ],
                "metallicFactor" : 0,
                "roughnessFactor" : 0.4000000059604645
            }
        },
        {
            "doubleSided" : true,
            "name" : "Material.022",
            "pbrMetallicRoughness" : {
                "baseColorFactor" : [
                    0,
                    0,
                    0,
                    1
                ],
                "metallicFactor" : 0,
                "roughnessFactor" : 0.4000000059604645
            }
        }
    ],
    "meshes" : [
        {
            "name" : "Cube.005",
            "primitives" : [
                {
                    "attributes" : {
                        "POSITION" : 0,
                        "NORMAL" : 1,
                        "TEXCOORD_0" : 2
                    },
                    "indices" : 3,
                    "material" : 0
                },
                {
                    "attributes" : {
                        "POSITION" : 4,
                        "NORMAL" : 5,
                        "TEXCOORD_0" : 6
                    },
                    "indices" : 7,
                    "material" : 1
                },
                {
                    "attributes" : {
                        "POSITION" : 8,
                        "NORMAL" : 9,
                        "TEXCOORD_0" : 10
                    },
                    "indices" : 11,
                    "material" : 2
                },
                {
                    "attributes" : {
                        "POSITION" : 12,
                        "NORMAL" : 13,
                        "TEXCOORD_0" : 14
                    },
                    "indices" : 15,
                    "material" : 3
                },
                {
                    "attributes" : {
                        "POSITION" : 16,
                        "NORMAL" : 17,
                        "TEXCOORD_0" : 18
                    },
                    "indices" : 19,
                    "material" : 4
                },
                {
                    "attributes" : {
                        "POSITION" : 20,
                        "NORMAL" : 21,
                        "TEXCOORD_0" : 22
                    },
                    "indices" : 23,
                    "material" : 5
                },
                {
                    "attributes" : {
                        "POSITION" : 24,
                        "NORMAL" : 25,
                        "TEXCOORD_0" : 26
                    },
                    "indices" : 27,
                    "material" : 6
                }
            ]
        }
    ],
    "accessors" : [
        {
            "bufferView" : 0,
            "componentType" : 5126,
            "count" : 1136,
            "max" : [
                0.769859254360199,
                1.4999159574508667,
                3.461003303527832
            ],
            "min" : [
                -0.769859254360199,
                -2.0185725688934326,
                -3.031839370727539
            ],
            "type" : "VEC3"
        },
        {
            "bufferView" : 1,
            "componentType" : 5126,
            "count" : 1136,
            "type" : "VEC3"
        },
        {
            "bufferView" : 2,
            "componentType" : 5126,
            "count" : 1136,
            "type" : "VEC2"
        },
        {
            "bufferView" : 3,
            "componentType" : 5123,
            "count" : 5208,
            "type" : "SCALAR"
        },
        {
            "bufferView" : 4,
            "componentType" : 5126,
            "count" : 24,
            "max" : [
                0.05166510120034218,
                0.7340976595878601,
                -3.014153242111206
            ],
            "min" : [
                -0.05166510120034218,
                0.5806427001953125,
                -3.114461660385132
            ],
            "type" : "VEC3"
        },
        {
            "bufferView" : 5,
            "componentType" : 5126,
            "count" : 24,
            "type" : "VEC3"
        },
        {
            "bufferView" : 6,
            "componentType" : 5126,
            "count" : 24,
            "type" : "VEC2"
        },
        {
            "bufferView" : 7,
            "componentType" : 5123,
            "count" : 60,
            "type" : "SCALAR"
        },
        {
            "bufferView" : 8,
            "componentType" : 5126,
            "count" : 3968,
            "max" : [
                0.3158645033836365,
                1.0243489742279053,
                -2.396153211593628
            ],
            "min" : [
                -0.3158644735813141,
                0.8198446035385132,
                -2.5540475845336914
            ],
            "type" : "VEC3"
        },
        {
            "bufferView" : 9,
            "componentType" : 5126,
            "count" : 3968,
            "type" : "VEC3"
        },
        {
            "bufferView" : 10,
            "componentType" : 5126,
            "count" : 3968,
            "type" : "VEC2"
        },
        {
            "bufferView" : 11,
            "componentType" : 5123,
            "count" : 5760,
            "type" : "SCALAR"
        },
        {
            "bufferView" : 12,
            "componentType" : 5126,
            "count" : 14,
            "max" : [
                0.08129657059907913,
                0.5541986227035522,
                -2.5912327766418457
            ],
            "min" : [
                -0.08129657059907913,
                0.4572441577911377,
                -2.8078439235687256
            ],
            "type" : "VEC3"
        },
        {
            "bufferView" : 13,
            "componentType" : 5126,
            "count" : 14,
            "type" : "VEC3"
        },
        {
            "bufferView" : 14,
            "componentType" : 5126,
            "count" : 14,
            "type" : "VEC2"
        },
        {
            "bufferView" : 15,
            "componentType" : 5123,
            "count" : 30,
            "type" : "SCALAR"
        },
        {
            "bufferView" : 16,
            "componentType" : 5126,
            "count" : 84,
            "max" : [
                0.7408157587051392,
                1.3819224834442139,
                -0.10567255318164825
            ],
            "min" : [
                -0.7408157587051392,
                -0.21918180584907532,
                -2.4512126445770264
            ],
            "type" : "VEC3"
        },
        {
            "bufferView" : 17,
            "componentType" : 5126,
            "count" : 84,
            "type" : "VEC3"
        },
        {
            "bufferView" : 18,
            "componentType" : 5126,
            "count" : 84,
            "type" : "VEC2"
        },
        {
            "bufferView" : 19,
            "componentType" : 5123,
            "count" : 138,
            "type" : "SCALAR"
        },
        {
            "bufferView" : 20,
            "componentType" : 5126,
            "count" : 8,
            "max" : [
                0.2837550938129425,
                1.3303142786026,
                -2.3898181915283203
            ],
            "min" : [
                -0.2837550938129425,
                1.1330339908599854,
                -2.4264464378356934
            ],
            "type" : "VEC3"
        },
        {
            "bufferView" : 21,
            "componentType" : 5126,
            "count" : 8,
            "type" : "VEC3"
        },
        {
            "bufferView" : 22,
            "componentType" : 5126,
            "count" : 8,
            "type" : "VEC2"
        },
        {
            "bufferView" : 23,
            "componentType" : 5123,
            "count" : 12,
            "type" : "SCALAR"
        },
        {
            "bufferView" : 24,
            "componentType" : 5126,
            "count" : 3968,
            "max" : [
                0.2825121283531189,
                0.9628927111625671,
                -2.4800565242767334
            ],
            "min" : [
                -0.2825121581554413,
                0.8510380983352661,
                -2.5664174556732178
            ],
            "type" : "VEC3"
        },
        {
            "bufferView" : 25,
            "componentType" : 5126,
            "count" : 3968,
            "type" : "VEC3"
        },
        {
            "bufferView" : 26,
            "componentType" : 5126,
            "count" : 3968,
            "type" : "VEC2"
        },
        {
            "bufferView" : 27,
            "componentType" : 5123,
            "count" : 5760,
            "type" : "SCALAR"
        }
    ],
    "bufferViews" : [
        {
            "buffer" : 0,
            "byteLength" : 13632,
            "byteOffset" : 0
        },
        {
            "buffer" : 0,
            "byteLength" : 13632,
            "byteOffset" : 13632
        },
        {
            "buffer" : 0,
            "byteLength" : 9088,
            "byteOffset" : 27264
        },
        {
            "buffer" : 0,
            "byteLength" : 10416,
            "byteOffset" : 36352
        },
        {
            "buffer" : 0,
            "byteLength" : 288,
            "byteOffset" : 46768
        },
        {
            "buffer" : 0,
            "byteLength" : 288,
            "byteOffset" : 47056
        },
        {
            "buffer" : 0,
            "byteLength" : 192,
            "byteOffset" : 47344
        },
        {
            "buffer" : 0,
            "byteLength" : 120,
            "byteOffset" : 47536
        },
        {
            "buffer" : 0,
            "byteLength" : 47616,
            "byteOffset" : 47656
        },
        {
            "buffer" : 0,
            "byteLength" : 47616,
            "byteOffset" : 95272
        },
        {
            "buffer" : 0,
            "byteLength" : 31744,
            "byteOffset" : 142888
        },
        {
            "buffer" : 0,
            "byteLength" : 11520,
            "byteOffset" : 174632
        },
        {
            "buffer" : 0,
            "byteLength" : 168,
            "byteOffset" : 186152
        },
        {
            "buffer" : 0,
            "byteLength" : 168,
            "byteOffset" : 186320
        },
        {
            "buffer" : 0,
            "byteLength" : 112,
            "byteOffset" : 186488
        },
        {
            "buffer" : 0,
            "byteLength" : 60,
            "byteOffset" : 186600
        },
        {
            "buffer" : 0,
            "byteLength" : 1008,
            "byteOffset" : 186660
        },
        {
            "buffer" : 0,
            "byteLength" : 1008,
            "byteOffset" : 187668
        },
        {
            "buffer" : 0,
            "byteLength" : 672,
            "byteOffset" : 188676
        },
        {
            "buffer" : 0,
            "byteLength" : 276,
            "byteOffset" : 189348
        },
        {
            "buffer" : 0,
            "byteLength" : 96,
            "byteOffset" : 189624
        },
        {
            "buffer" : 0,
            "byteLength" : 96,
            "byteOffset" : 189720
        },
        {
            "buffer" : 0,
            "byteLength" : 64,
            "byteOffset" : 189816
        },
        {
            "buffer" : 0,
            "byteLength" : 24,
            "byteOffset" : 189880
        },
        {
            "buffer" : 0,
            "byteLength" : 47616,
            "byteOffset" : 189904
        },
        {
            "buffer" : 0,
            "byteLength" : 47616,
            "byteOffset" : 237520
        },
        {
            "buffer" : 0,
            "byteLength" : 31744,
            "byteOffset" : 285136
        },
        {
            "buffer" : 0,
            "byteLength" : 11520,
            "byteOffset" : 316880
        }
    ],
    "buffers" : [
        {
            "byteLength" : 328400,
            "uri" : "data:application/octet-stream;base64,"
        }
    ]
}
